# xmcd
#
# Track frame offsets:
#	150
#	12460
#	21365
#	32027
#	43280
#	54087
#	62720
#	74545
#	83670
#	94747
#	106142
#	120330
#	130657
#	139147
#	147900
#	158452
#	167015
#	176707
#	190832
#	203470
#	213850
#	220737
#	230967
#	242162
#	250592
#	260610
#	273907
#	286412
#	298257
#	310980
# Disc length: 4326 seconds
# Revision: 3
# Processed by: cddbd v1.5.1PL2 Copyright (c) Steve Scherf et al.
#
# Submitted via: libkcddb 0.31
#
DISCID=b610e41e
DTITLE=Dave Clark Five - The Dave Clark Five Collection
DYEAR=1900
DGENRE=Oldies
TTITLE0=Glad All Over
TTITLE1=Bits And Pieces
TTITLE2=Can't  You See That She Is Mine
TTITLE3=Anyway You Want it
TTITLE4=Because
TTITLE5=Catch Us If You Can
TTITLE6=Hurtin' Inside
TTITLE7=Over And Over
TTITLE8=Julia
TTITLE9=Five By Five
TTITLE10=The Mulberry Tree
TTITLE11=Small Talk
TTITLE12=I've Got to Have a Reason
TTITLE13=Good Time Woman
TTITLE14=Tabatha Twitchit
TTITLE15=Man In A  Pin-Stripped Grit
TTITLE16=Try Too Hard
TTITLE17=All Night Long
TTITLE18=Live In The Sky
TTITLE19=Look Before You Leap
TTITLE20=Please Tell Me Why
TTITLE21=Everybody Knows
TTITLE22=Concentration Baby
TTITLE23=At The Scene
TTITLE24=I Miss You
TTITLE25=You've Got What It Takes
TTITLE26=Sitting Here Baby
TTITLE27=No One Can Break A Heart Like You
TTITLE28=You Don't Want My Lovin'
TTITLE29=Red Balloon
EXTD=
EXTT0=
EXTT1=
EXTT2=
EXTT3=
EXTT4=
EXTT5=
EXTT6=
EXTT7=
EXTT8=
EXTT9=
EXTT10=
EXTT11=
EXTT12=
EXTT13=
EXTT14=
EXTT15=
EXTT16=
EXTT17=
EXTT18=
EXTT19=
EXTT20=
EXTT21=
EXTT22=
EXTT23=
EXTT24=
EXTT25=
EXTT26=
EXTT27=
EXTT28=
EXTT29=
PLAYORDER=
